# Created by Open3D 
# object name: map
# number of vertices: 276
# number of triangles: 444
v -0.05 -0.05 -0.05
v 19.95 -0.05 -0.05
v -0.05 -0.05 1.05
v 19.95 -0.05 1.05
v -0.05 0.25 -0.05
v 19.95 0.25 -0.05
v -0.05 0.25 1.05
v 19.95 0.25 1.05
v 7.85 0.15 -0.05
v 8.15 0.15 -0.05
v 7.85 0.15 1.05
v 8.15 0.15 1.05
v 7.85 1.95 -0.05
v 8.15 1.95 -0.05
v 7.85 1.95 1.05
v 8.15 1.95 1.05
v 15.75 0.15 -0.05
v 16.05 0.15 -0.05
v 15.75 0.15 1.05
v 16.05 0.15 1.05
v 15.75 1.95 -0.05
v 16.05 1.95 -0.05
v 15.75 1.95 1.05
v 16.05 1.95 1.05
v 5.95 1.85 -0.05
v 10.05 1.85 -0.05
v 5.95 1.85 1.05
v 10.05 1.85 1.05
v 5.95 1.95 -0.05
v 10.05 1.95 -0.05
v 5.95 1.95 1.05
v 10.05 1.95 1.05
v 1.85 0.15 -0.05
v 2.15 0.15 -0.05
v 1.85 0.15 1.05
v 2.15 0.15 1.05
v 1.85 2.15 -0.05
v 2.15 2.15 -0.05
v 1.85 2.15 1.05
v 2.15 2.15 1.05
v 3.85 0.15 -0.05
v 4.15 0.15 -0.05
v 3.85 0.15 1.05
v 4.15 0.15 1.05
v 3.85 2.15 -0.05
v 4.15 2.15 -0.05
v 3.85 2.15 1.05
v 4.15 2.15 1.05
v 11.75 0.15 -0.05
v 12.05 0.15 -0.05
v 11.75 0.15 1.05
v 12.05 0.15 1.05
v 11.75 2.15 -0.05
v 12.05 2.15 -0.05
v 11.75 2.15 1.05
v 12.05 2.15 1.05
v 13.85 1.85 -0.05
v 16.05 1.85 -0.05
v 13.85 1.85 1.05
v 16.05 1.85 1.05
v 13.85 2.15 -0.05
v 16.05 2.15 -0.05
v 13.85 2.15 1.05
v 16.05 2.15 1.05
v 10.15 1.95 -0.05
v 10.15 1.95 1.05
v 5.95 2.25 -0.05
v 10.15 2.25 -0.05
v 5.95 2.25 1.05
v 10.15 2.25 1.05
v 13.85 2.05 -0.05
v 15.95 2.05 -0.05
v 13.85 2.05 1.05
v 15.95 2.05 1.05
v 15.95 2.15 -0.05
v 15.95 2.15 1.05
v 17.75 0.15 -0.05
v 18.05 0.15 -0.05
v 17.75 0.15 1.05
v 18.05 0.15 1.05
v 17.75 3.95 -0.05
v 18.05 3.95 -0.05
v 17.75 3.95 1.05
v 18.05 3.95 1.05
v 11.85 3.85 -0.05
v 18.05 3.85 -0.05
v 11.85 3.85 1.05
v 18.05 3.85 1.05
v 11.85 4.15 -0.05
v 18.05 4.15 -0.05
v 11.85 4.15 1.05
v 18.05 4.15 1.05
v 11.85 4.05 -0.05
v 17.95 4.05 -0.05
v 11.85 4.05 1.05
v 17.95 4.05 1.05
v 17.95 4.15 -0.05
v 17.95 4.15 1.05
v 1.85 3.95 -0.05
v 2.15 3.95 -0.05
v 1.85 3.95 1.05
v 2.15 3.95 1.05
v 1.85 5.85 -0.05
v 2.15 5.85 -0.05
v 1.85 5.85 1.05
v 2.15 5.85 1.05
v 9.85 2.15 -0.05
v 10.15 2.15 -0.05
v 9.85 2.15 1.05
v 10.15 2.15 1.05
v 9.85 5.85 -0.05
v 10.15 5.85 -0.05
v 9.85 5.85 1.05
v 10.15 5.85 1.05
v 19.75 0.15 -0.05
v 19.95 0.15 -0.05
v 19.75 0.15 1.05
v 19.95 0.15 1.05
v 19.75 5.85 -0.05
v 19.95 5.85 -0.05
v 19.75 5.85 1.05
v 19.95 5.85 1.05
v 1.85 5.75 -0.05
v 4.05 5.75 -0.05
v 1.85 5.75 1.05
v 4.05 5.75 1.05
v 4.05 5.85 -0.05
v 4.05 5.85 1.05
v 17.85 5.75 -0.05
v 19.95 5.75 -0.05
v 17.85 5.75 1.05
v 19.95 5.75 1.05
v 17.85 5.85 -0.05
v 17.85 5.85 1.05
v 5.85 3.95 -0.05
v 6.15 3.95 -0.05
v 5.85 3.95 1.05
v 6.15 3.95 1.05
v 5.85 6.05 -0.05
v 6.15 6.05 -0.05
v 5.85 6.05 1.05
v 6.15 6.05 1.05
v 9.85 5.75 -0.05
v 11.95 5.75 -0.05
v 9.85 5.75 1.05
v 11.95 5.75 1.05
v 9.85 6.05 -0.05
v 11.95 6.05 -0.05
v 9.85 6.05 1.05
v 11.95 6.05 1.05
v 13.75 4.15 -0.05
v 14.05 4.15 -0.05
v 13.75 4.15 1.05
v 14.05 4.15 1.05
v 13.75 6.05 -0.05
v 14.05 6.05 -0.05
v 13.75 6.05 1.05
v 14.05 6.05 1.05
v 4.15 5.85 -0.05
v 4.15 5.85 1.05
v 1.85 6.15 -0.05
v 4.15 6.15 -0.05
v 1.85 6.15 1.05
v 4.15 6.15 1.05
v 9.95 5.95 -0.05
v 11.95 5.95 -0.05
v 9.95 5.95 1.05
v 11.95 5.95 1.05
v 9.95 6.05 -0.05
v 9.95 6.05 1.05
v 17.75 5.85 -0.05
v 17.75 5.85 1.05
v 17.75 6.15 -0.05
v 19.95 6.15 -0.05
v 17.75 6.15 1.05
v 19.95 6.15 1.05
v 3.85 6.05 -0.05
v 4.15 6.05 -0.05
v 3.85 6.05 1.05
v 4.15 6.05 1.05
v 3.85 7.85 -0.05
v 4.15 7.85 -0.05
v 3.85 7.85 1.05
v 4.15 7.85 1.05
v 7.85 3.95 -0.05
v 8.15 3.95 -0.05
v 7.85 3.95 1.05
v 8.15 3.95 1.05
v 7.85 7.85 -0.05
v 8.15 7.85 -0.05
v 7.85 7.85 1.05
v 8.15 7.85 1.05
v 1.85 6.05 -0.05
v 2.15 6.05 -0.05
v 1.85 6.05 1.05
v 2.15 6.05 1.05
v 1.85 8.05 -0.05
v 2.15 8.05 -0.05
v 1.85 8.05 1.05
v 2.15 8.05 1.05
v 3.85 7.75 -0.05
v 8.15 7.75 -0.05
v 3.85 7.75 1.05
v 8.15 7.75 1.05
v 3.85 8.05 -0.05
v 8.15 8.05 -0.05
v 3.85 8.05 1.05
v 8.15 8.05 1.05
v 15.75 5.85 -0.05
v 16.05 5.85 -0.05
v 15.75 5.85 1.05
v 16.05 5.85 1.05
v 15.75 8.05 -0.05
v 16.05 8.05 -0.05
v 15.75 8.05 1.05
v 16.05 8.05 1.05
v 17.75 6.05 -0.05
v 18.05 6.05 -0.05
v 17.75 6.05 1.05
v 18.05 6.05 1.05
v 17.75 8.05 -0.05
v 18.05 8.05 -0.05
v 17.75 8.05 1.05
v 18.05 8.05 1.05
v 19.75 6.05 -0.05
v 19.95 6.05 -0.05
v 19.75 6.05 1.05
v 19.95 6.05 1.05
v 19.75 8.05 -0.05
v 19.95 8.05 -0.05
v 19.75 8.05 1.05
v 19.95 8.05 1.05
v 3.95 7.95 -0.05
v 8.15 7.95 -0.05
v 3.95 7.95 1.05
v 8.15 7.95 1.05
v 3.95 8.05 -0.05
v 3.95 8.05 1.05
v 11.85 7.75 -0.05
v 13.95 7.75 -0.05
v 11.85 7.75 1.05
v 13.95 7.75 1.05
v 11.85 8.15 -0.05
v 13.95 8.15 -0.05
v 11.85 8.15 1.05
v 13.95 8.15 1.05
v -0.05 1.95 -0.05
v 0.15 1.95 -0.05
v -0.05 1.95 1.05
v 0.15 1.95 1.05
v -0.05 9.85 -0.05
v 0.15 9.85 -0.05
v -0.05 9.85 1.05
v 0.15 9.85 1.05
v 7.85 8.05 -0.05
v 7.85 8.05 1.05
v 7.85 9.85 -0.05
v 8.15 9.85 -0.05
v 7.85 9.85 1.05
v 8.15 9.85 1.05
v 9.85 7.85 -0.05
v 10.15 7.85 -0.05
v 9.85 7.85 1.05
v 10.15 7.85 1.05
v 9.85 9.85 -0.05
v 10.15 9.85 -0.05
v 9.85 9.85 1.05
v 10.15 9.85 1.05
v -0.05 9.75 -0.05
v 19.95 9.75 -0.05
v -0.05 9.75 1.05
v 19.95 9.75 1.05
v -0.05 10.05 -0.05
v 19.95 10.05 -0.05
v -0.05 10.05 1.05
v 19.95 10.05 1.05
f 5 8 6
f 5 7 8
f 1 3 5
f 3 7 5
f 1 2 3
f 2 4 3
f 2 6 8
f 2 8 4
f 3 4 8
f 3 8 7
f 1 5 2
f 2 5 6
f 13 16 14
f 13 15 16
f 9 11 13
f 11 15 13
f 9 10 11
f 10 12 11
f 10 14 16
f 10 16 12
f 11 12 16
f 11 16 15
f 9 13 10
f 10 13 14
f 21 24 22
f 21 23 24
f 17 19 21
f 19 23 21
f 17 18 19
f 18 20 19
f 18 22 24
f 18 24 20
f 19 20 24
f 19 24 23
f 17 21 18
f 18 21 22
f 29 32 30
f 29 31 32
f 25 27 29
f 27 31 29
f 25 26 27
f 26 28 27
f 26 30 32
f 26 32 28
f 27 28 32
f 27 32 31
f 25 29 26
f 26 29 30
f 37 40 38
f 37 39 40
f 33 35 37
f 35 39 37
f 33 34 35
f 34 36 35
f 34 38 40
f 34 40 36
f 35 36 40
f 35 40 39
f 33 37 34
f 34 37 38
f 45 48 46
f 45 47 48
f 41 43 45
f 43 47 45
f 41 42 43
f 42 44 43
f 42 46 48
f 42 48 44
f 43 44 48
f 43 48 47
f 41 45 42
f 42 45 46
f 53 56 54
f 53 55 56
f 49 51 53
f 51 55 53
f 49 50 51
f 50 52 51
f 50 54 56
f 50 56 52
f 51 52 56
f 51 56 55
f 49 53 50
f 50 53 54
f 61 64 62
f 61 63 64
f 57 59 61
f 59 63 61
f 57 58 59
f 58 60 59
f 58 62 64
f 58 64 60
f 59 60 64
f 59 64 63
f 57 61 58
f 58 61 62
f 67 70 68
f 67 69 70
f 29 31 67
f 31 69 67
f 29 65 31
f 65 66 31
f 65 68 70
f 65 70 66
f 31 66 70
f 31 70 69
f 29 67 65
f 65 67 68
f 61 76 75
f 61 63 76
f 71 73 61
f 73 63 61
f 71 72 73
f 72 74 73
f 72 75 76
f 72 76 74
f 73 74 76
f 73 76 63
f 71 61 72
f 72 61 75
f 81 84 82
f 81 83 84
f 77 79 81
f 79 83 81
f 77 78 79
f 78 80 79
f 78 82 84
f 78 84 80
f 79 80 84
f 79 84 83
f 77 81 78
f 78 81 82
f 89 92 90
f 89 91 92
f 85 87 89
f 87 91 89
f 85 86 87
f 86 88 87
f 86 90 92
f 86 92 88
f 87 88 92
f 87 92 91
f 85 89 86
f 86 89 90
f 89 98 97
f 89 91 98
f 93 95 89
f 95 91 89
f 93 94 95
f 94 96 95
f 94 97 98
f 94 98 96
f 95 96 98
f 95 98 91
f 93 89 94
f 94 89 97
f 103 106 104
f 103 105 106
f 99 101 103
f 101 105 103
f 99 100 101
f 100 102 101
f 100 104 106
f 100 106 102
f 101 102 106
f 101 106 105
f 99 103 100
f 100 103 104
f 111 114 112
f 111 113 114
f 107 109 111
f 109 113 111
f 107 108 109
f 108 110 109
f 108 112 114
f 108 114 110
f 109 110 114
f 109 114 113
f 107 111 108
f 108 111 112
f 119 122 120
f 119 121 122
f 115 117 119
f 117 121 119
f 115 116 117
f 116 118 117
f 116 120 122
f 116 122 118
f 117 118 122
f 117 122 121
f 115 119 116
f 116 119 120
f 103 128 127
f 103 105 128
f 123 125 103
f 125 105 103
f 123 124 125
f 124 126 125
f 124 127 128
f 124 128 126
f 125 126 128
f 125 128 105
f 123 103 124
f 124 103 127
f 133 122 120
f 133 134 122
f 129 131 133
f 131 134 133
f 129 130 131
f 130 132 131
f 130 120 122
f 130 122 132
f 131 132 122
f 131 122 134
f 129 133 130
f 130 133 120
f 139 142 140
f 139 141 142
f 135 137 139
f 137 141 139
f 135 136 137
f 136 138 137
f 136 140 142
f 136 142 138
f 137 138 142
f 137 142 141
f 135 139 136
f 136 139 140
f 147 150 148
f 147 149 150
f 143 145 147
f 145 149 147
f 143 144 145
f 144 146 145
f 144 148 150
f 144 150 146
f 145 146 150
f 145 150 149
f 143 147 144
f 144 147 148
f 155 158 156
f 155 157 158
f 151 153 155
f 153 157 155
f 151 152 153
f 152 154 153
f 152 156 158
f 152 158 154
f 153 154 158
f 153 158 157
f 151 155 152
f 152 155 156
f 161 164 162
f 161 163 164
f 103 105 161
f 105 163 161
f 103 159 105
f 159 160 105
f 159 162 164
f 159 164 160
f 105 160 164
f 105 164 163
f 103 161 159
f 159 161 162
f 169 150 148
f 169 170 150
f 165 167 169
f 167 170 169
f 165 166 167
f 166 168 167
f 166 148 150
f 166 150 168
f 167 168 150
f 167 150 170
f 165 169 166
f 166 169 148
f 173 176 174
f 173 175 176
f 171 172 173
f 172 175 173
f 171 120 172
f 120 122 172
f 120 174 176
f 120 176 122
f 172 122 176
f 172 176 175
f 171 173 120
f 120 173 174
f 181 184 182
f 181 183 184
f 177 179 181
f 179 183 181
f 177 178 179
f 178 180 179
f 178 182 184
f 178 184 180
f 179 180 184
f 179 184 183
f 177 181 178
f 178 181 182
f 189 192 190
f 189 191 192
f 185 187 189
f 187 191 189
f 185 186 187
f 186 188 187
f 186 190 192
f 186 192 188
f 187 188 192
f 187 192 191
f 185 189 186
f 186 189 190
f 197 200 198
f 197 199 200
f 193 195 197
f 195 199 197
f 193 194 195
f 194 196 195
f 194 198 200
f 194 200 196
f 195 196 200
f 195 200 199
f 193 197 194
f 194 197 198
f 205 208 206
f 205 207 208
f 201 203 205
f 203 207 205
f 201 202 203
f 202 204 203
f 202 206 208
f 202 208 204
f 203 204 208
f 203 208 207
f 201 205 202
f 202 205 206
f 213 216 214
f 213 215 216
f 209 211 213
f 211 215 213
f 209 210 211
f 210 212 211
f 210 214 216
f 210 216 212
f 211 212 216
f 211 216 215
f 209 213 210
f 210 213 214
f 221 224 222
f 221 223 224
f 217 219 221
f 219 223 221
f 217 218 219
f 218 220 219
f 218 222 224
f 218 224 220
f 219 220 224
f 219 224 223
f 217 221 218
f 218 221 222
f 229 232 230
f 229 231 232
f 225 227 229
f 227 231 229
f 225 226 227
f 226 228 227
f 226 230 232
f 226 232 228
f 227 228 232
f 227 232 231
f 225 229 226
f 226 229 230
f 237 208 206
f 237 238 208
f 233 235 237
f 235 238 237
f 233 234 235
f 234 236 235
f 234 206 208
f 234 208 236
f 235 236 208
f 235 208 238
f 233 237 234
f 234 237 206
f 243 246 244
f 243 245 246
f 239 241 243
f 241 245 243
f 239 240 241
f 240 242 241
f 240 244 246
f 240 246 242
f 241 242 246
f 241 246 245
f 239 243 240
f 240 243 244
f 251 254 252
f 251 253 254
f 247 249 251
f 249 253 251
f 247 248 249
f 248 250 249
f 248 252 254
f 248 254 250
f 249 250 254
f 249 254 253
f 247 251 248
f 248 251 252
f 257 260 258
f 257 259 260
f 255 256 257
f 256 259 257
f 255 206 256
f 206 208 256
f 206 258 260
f 206 260 208
f 256 208 260
f 256 260 259
f 255 257 206
f 206 257 258
f 265 268 266
f 265 267 268
f 261 263 265
f 263 267 265
f 261 262 263
f 262 264 263
f 262 266 268
f 262 268 264
f 263 264 268
f 263 268 267
f 261 265 262
f 262 265 266
f 273 276 274
f 273 275 276
f 269 271 273
f 271 275 273
f 269 270 271
f 270 272 271
f 270 274 276
f 270 276 272
f 271 272 276
f 271 276 275
f 269 273 270
f 270 273 274
